{"title":"Her.2013.BRRip.480p.x264.AAC-VYTO [P2PDL]","uid":10045744,"size":457154926,"categoryP":"video","categoryS":"movies","magnet":"?xt=urn:btih:1b601382b52fdac95b61fce4ec4e54f884d72ee7&amp;dn=Her.2013.BRRip.480p.x264.AAC-VYTO+%5BP2PDL%5D&amp;tr=udp%3A%2F%2Ftracker.openbittorrent.com%3A80&amp;tr=udp%3A%2F%2Fopen.demonii.com%3A1337&amp;tr=udp%3A%2F%2Ftracker.coppersurfer.tk%3A6969&amp;tr=udp%3A%2F%2Fexodus.desync.com%3A6969","seeders":1,"leechers":1,"uploader":"ValidusVyto","files":-1,"time":1398528601,"description":"____    ____ ____    ____ .___________.  ______   \n    /   /      /   / |           | /  __    \n   /   /      /   /  `---|  |----`|  |  |  | \n       /     _    _/       |  |     |  |  |  | \n      /        |  |         |  |     |  `--'  | \n   __/         |__|         |__|      ______/  \n                                                 \nPresenting Small Encodes with quality for years!\n\n\n\nHer.2013.BRRip.480p.x264.AAC-VYTO\n\n\n\nGenre: Drama | Romance | Sci-Fi\nIMDb: http://www.imdb.com/title/tt1798709/\n\n\n\nQuote:\nFormat                         : MPEG-4\nFile size                      : 432 MiB\nDuration                       : 2h 5mn\nOverall bit rate               : 480 Kbps\n\nVideo\nFormat                         : AVC\nBit rate                       : 437 Kbps\nWidth                          : 720 pixels\nHeight                         : 384 pixels\nDisplay aspect ratio           : 1.85:1\nFrame rate mode                : Constant\nFrame rate                     : 23.976 fps\nBit depth                      : 8 bits\nStream size                    : 393 MiB (91%)\nWriting library                : x264 core 142 r2431 ac76440\n\nAudio\nFormat                         : AAC\nBit rate mode                  : Variable\nBit rate                       : 40.0 Kbps\nChannel count                  : 2 channels\nChannel positions              : Front: L R\nSampling rate                  : 48.0 KHz \nStream size                    : 36.0 MiB (8%)\nLanguage                       : English\n\nSubtitle                       : Yes (English)\n\n &lt;a href=&quot;\nhttp://i.imgur.com/CDMMRxV.png&quot; rel=&quot;nofollow&quot; target=&quot;_NEW&quot;&gt;\nhttp://i.imgur.com/CDMMRxV.png&lt;/a&gt; &lt;a href=&quot;\nhttp://i.imgur.com/opyomjh.png&quot; rel=&quot;nofollow&quot; target=&quot;_NEW&quot;&gt;\nhttp://i.imgur.com/opyomjh.png&lt;/a&gt; &lt;a href=&quot;\nhttp://i.imgur.com/06ClwaE.png&quot; rel=&quot;nofollow&quot; target=&quot;_NEW&quot;&gt;\nhttp://i.imgur.com/06ClwaE.png&lt;/a&gt; &lt;a href=&quot;\nhttp://i.imgur.com/XeD3fFP.png&quot; rel=&quot;nofollow&quot; target=&quot;_NEW&quot;&gt;\nhttp://i.imgur.com/XeD3fFP.png&lt;/a&gt;\n\n\nEncoded by VYTO @","torrent":{"xt":"urn:btih:1b601382b52fdac95b61fce4ec4e54f884d72ee7","amp;dn":"Her.2013.BRRip.480p.x264.AAC-VYTO+%5BP2PDL%5D","amp;tr":["udp%3A%2F%2Ftracker.openbittorrent.com%3A80","udp%3A%2F%2Fopen.demonii.com%3A1337","udp%3A%2F%2Ftracker.coppersurfer.tk%3A6969","udp%3A%2F%2Fexodus.desync.com%3A6969"],"infoHash":"1b601382b52fdac95b61fce4ec4e54f884d72ee7","infoHashBuffer":{"type":"Buffer","data":[27,96,19,130,181,47,218,201,91,97,252,228,236,78,84,248,132,215,46,231]},"announce":[],"urlList":[]}}